<?xml version="1.0" encoding="UTF-8"?> <!-- Generator: Adobe Illustrator 23.0.1, SVG Export Plug-In . SVG Version: 6.00 Build 0) --> <svg xmlns="http://www.w3.org/2000/svg" xmlns:xlink="http://www.w3.org/1999/xlink" id="_x31_" x="0px" y="0px" viewBox="0 0 185.39 160.94" style="enable-background:new 0 0 185.39 160.94;" xml:space="preserve"> <style type="text/css"> .st0{fill:#003045;} .st1{opacity:0.4;fill-rule:evenodd;clip-rule:evenodd;fill:#F9B92C;} .st2{opacity:0.4;fill-rule:evenodd;clip-rule:evenodd;fill:#33AB4A;} .st3{opacity:0.4;fill-rule:evenodd;clip-rule:evenodd;fill:#A4579E;} .st4{opacity:0.5;fill-rule:evenodd;clip-rule:evenodd;fill:#F9B92C;} .st5{opacity:0.5;fill-rule:evenodd;clip-rule:evenodd;fill:#33AB4A;} .st6{opacity:0.6;fill-rule:evenodd;clip-rule:evenodd;fill:#E4081E;} .st7{opacity:0.6;fill-rule:evenodd;clip-rule:evenodd;fill:#A4579E;} .st8{opacity:0.5;fill-rule:evenodd;clip-rule:evenodd;fill:#A4579E;} .st9{opacity:0.7;fill-rule:evenodd;clip-rule:evenodd;fill:#33AB4A;} .st10{fill-rule:evenodd;clip-rule:evenodd;fill:#003045;} .st11{fill-rule:evenodd;clip-rule:evenodd;fill:#A4579E;} .st12{fill-rule:evenodd;clip-rule:evenodd;fill:#E4081E;} .st13{fill-rule:evenodd;clip-rule:evenodd;fill:#F9B92C;} .st14{fill-rule:evenodd;clip-rule:evenodd;fill:#33AB4A;} .st15{fill-rule:evenodd;clip-rule:evenodd;fill:#557EBF;} .st16{fill-rule:evenodd;clip-rule:evenodd;fill:#FDE4AF;} </style> <g> <g> <path class="st0" d="M8.31,145.25h1.36v11.36H8.31V145.25z M9.09,145.25h5.59v1.28H9.09V145.25z"></path> <path class="st0" d="M16.73,145.25h1.36v11.36h-1.36V145.25z M17.5,145.25h6.52v1.28H17.5V145.25z M17.5,150.33h5.66v1.28H17.5 V150.33z M17.5,155.33h6.52v1.28H17.5V155.33z"></path> <path class="st0" d="M27.09,145.25h1.36v11.36h-1.36V145.25z M27.97,150.36h6.54v1.3h-6.54V150.36z M33.78,145.25h1.36v11.36 h-1.36V145.25z"></path> <path class="st0" d="M40.23,156.61h-1.36v-11.36h1.36V156.61z"></path> <path class="st0" d="M51,156.6v-9.44l0.4-0.16l-6.23,9.6h-1.2v-11.35h1.35v9.53l-0.33,0.09l6.18-9.63h1.19v11.35H51z M50.75,142.05c0,0.76-0.23,1.35-0.68,1.76s-1.09,0.62-1.92,0.62h-0.06c-0.83,0-1.47-0.21-1.92-0.62s-0.68-1-0.68-1.76l1.15,0.02 c0,0.43,0.13,0.76,0.38,1c0.25,0.24,0.61,0.36,1.07,0.36h0.06c0.46,0,0.81-0.12,1.07-0.36c0.25-0.24,0.38-0.57,0.38-1 L50.75,142.05z"></path> <path class="st0" d="M71.35,145.25h1.34v11.36h-1.34v-9.13l0.09,0.5l-3.11,7.05h-0.95l-3.11-6.9l0.09-0.66v9.13h-1.34v-11.36h1.34 l3.49,7.85L71.35,145.25z"></path> <path class="st0" d="M79.39,145.25h1.36l4.19,11.36h-1.48l-3.38-9.67l-3.38,9.67H75.2L79.39,145.25z M77.13,152.7h5.98v1.28h-5.98 V152.7z"></path> <path class="st0" d="M94.5,156.6v-9.44l0.4-0.16l-6.23,9.6h-1.2v-11.35h1.35v9.53l-0.33,0.09l6.18-9.63h1.19v11.35H94.5z M94.25,142.05c0,0.76-0.23,1.35-0.68,1.76s-1.09,0.62-1.92,0.62h-0.06c-0.83,0-1.47-0.21-1.92-0.62s-0.68-1-0.68-1.76l1.15,0.02 c0,0.43,0.13,0.76,0.38,1c0.25,0.24,0.61,0.36,1.07,0.36h0.06c0.46,0,0.81-0.12,1.07-0.36c0.25-0.24,0.38-0.57,0.38-1 L94.25,142.05z"></path> <path class="st0" d="M99.46,145.25h1.36v11.36h-1.36V145.25z M100.23,145.25h5.59v1.28h-5.59V145.25z"></path> <path class="st0" d="M109.51,156.22c-0.6-0.34-1.06-0.82-1.38-1.45s-0.48-1.38-0.48-2.23v-3.22c0-0.86,0.16-1.6,0.48-2.23 s0.78-1.11,1.38-1.45s1.31-0.5,2.13-0.5c0.82,0,1.53,0.17,2.13,0.5s1.06,0.82,1.38,1.45s0.48,1.38,0.48,2.23v3.22 c0,0.86-0.16,1.6-0.48,2.23s-0.78,1.11-1.38,1.45s-1.31,0.5-2.13,0.5C110.82,156.73,110.11,156.56,109.51,156.22z M113.03,155.08 c0.39-0.23,0.7-0.55,0.91-0.98s0.32-0.93,0.32-1.51v-3.33c0-0.58-0.11-1.09-0.32-1.51s-0.51-0.75-0.91-0.98 c-0.39-0.23-0.86-0.34-1.39-0.34c-0.54,0-1,0.11-1.39,0.34c-0.39,0.23-0.7,0.55-0.91,0.98s-0.32,0.93-0.32,1.51v3.33 c0,0.58,0.11,1.09,0.32,1.51s0.51,0.75,0.91,0.98c0.39,0.23,0.86,0.34,1.39,0.34C112.17,155.42,112.64,155.31,113.03,155.08z"></path> <path class="st0" d="M134.4,145.25h1.34v11.36h-1.34v-9.13l0.09,0.5l-3.11,7.05h-0.95l-3.11-6.9l0.09-0.66v9.13h-1.34v-11.36h1.34 l3.49,7.85L134.4,145.25z"></path> <path class="st0" d="M139.34,145.25h1.36v11.36h-1.36V145.25z M140.12,145.25h6.52v1.28h-6.52V145.25z M140.12,150.33h5.66v1.28 h-5.66V150.33z M140.12,155.33h6.52v1.28h-6.52V155.33z"></path> <path class="st0" d="M152.25,156.73c0,0-0.3-0.17-0.89-0.52c-0.6-0.35-1.06-0.84-1.39-1.48s-0.49-1.38-0.49-2.23v-3.12 c0-0.84,0.16-1.59,0.49-2.23s0.79-1.14,1.39-1.49c0.6-0.35,1.29-0.53,2.07-0.53c0.65,0,1.25,0.14,1.8,0.41s1,0.66,1.37,1.16 s0.62,1.08,0.75,1.73h-1.38c-0.12-0.39-0.3-0.74-0.56-1.04s-0.56-0.54-0.91-0.71c-0.35-0.17-0.71-0.25-1.07-0.25 c-0.52,0-0.97,0.12-1.36,0.37c-0.39,0.25-0.69,0.59-0.9,1.03c-0.21,0.44-0.32,0.96-0.32,1.55v3.12c0,0.58,0.11,1.1,0.32,1.54 c0.21,0.45,0.51,0.79,0.9,1.03c0.39,0.24,0.84,0.36,1.36,0.36c0.38,0,0.73-0.08,1.08-0.23s0.64-0.39,0.9-0.69s0.44-0.66,0.56-1.08 h1.38c-0.13,0.66-0.38,1.23-0.75,1.73c-0.37,0.5-0.83,0.89-1.38,1.16s-1.14,0.41-1.79,0.41 C152.64,156.73,152.25,156.73,152.25,156.73z"></path> <path class="st0" d="M160.4,145.25h1.36v11.36h-1.36V145.25z M161.16,155.33h7.91v1.28h-7.91V155.33z M167.09,145.25h1.35v11.36 h-1.35V145.25z M168.47,155.33h1.36v3.63h-1.36V155.33z"></path> <path class="st0" d="M175.83,145.25h1.36l4.19,11.36h-1.48l-3.38-9.67l-3.38,9.67h-1.48L175.83,145.25z M173.57,152.7h5.98v1.28 h-5.98V152.7z"></path> </g> </g> <g> <circle class="st1" cx="75.8" cy="77.6" r="11.9"></circle> <path class="st1" d="M122.05,80.9c1.23,0.43,2.55,0.66,3.92,0.66c6.57,0,11.9-5.33,11.9-11.9c0-6.58-5.33-11.91-11.9-11.91 c-5.43,0-10.01,3.63-11.44,8.6c4.65,1.62,7.98,6.04,7.98,11.24C122.51,78.74,122.35,79.85,122.05,80.9z"></path> <path class="st2" d="M64.36,80.9c-1.23,0.43-2.55,0.66-3.92,0.66c-2.63,0-5.05-0.85-7.02-2.29c0.4-0.95,0.62-1.99,0.62-3.08 c0-3.52-2.29-6.5-5.46-7.54c0.51-6.1,5.63-10.89,11.86-10.89c5.43,0,10.01,3.63,11.44,8.6c-4.65,1.62-7.98,6.04-7.98,11.24 C63.89,78.74,64.06,79.85,64.36,80.9z"></path> <circle class="st2" cx="110.61" cy="77.6" r="11.9"></circle> <ellipse transform="matrix(0.7071 -0.7071 0.7071 0.7071 -9.8127 81.0684)" class="st3" cx="92.95" cy="52.38" rx="11.9" ry="11.9"></ellipse> <path class="st4" d="M83.74,77.6c0,4.38-3.55,7.94-7.94,7.94c-4.38,0-7.94-3.55-7.94-7.94c0-4.38,3.55-7.94,7.94-7.94 C80.18,69.66,83.74,73.21,83.74,77.6z"></path> <path class="st4" d="M122.49,76.79c1.05,0.51,2.23,0.8,3.48,0.8c4.38,0,7.94-3.55,7.94-7.94c0-4.38-3.55-7.94-7.94-7.94 c-3.95,0-7.22,2.88-7.83,6.65C120.61,70.4,122.26,73.4,122.49,76.79z"></path> <path class="st5" d="M63.92,76.79c-1.05,0.51-2.23,0.8-3.48,0.8c-4.38,0-7.94-3.55-7.94-7.94c0-4.38,3.55-7.94,7.94-7.94 c3.95,0,7.22,2.88,7.83,6.65C65.79,70.4,64.15,73.4,63.92,76.79z"></path> <path class="st4" d="M54.04,76.19c0,4.38-3.55,7.94-7.94,7.94c-4.38,0-7.94-3.55-7.94-7.94c0-4.38,3.55-7.94,7.94-7.94 C50.48,68.25,54.04,71.81,54.04,76.19z"></path> <path class="st6" d="M100.89,31.51c0,4.38-3.55,7.94-7.94,7.94c-4.38,0-7.94-3.55-7.94-7.94c0-4.38,3.55-7.94,7.94-7.94 C97.34,23.57,100.89,27.13,100.89,31.51z"></path> <path class="st5" d="M102.67,77.6c0,4.38,3.55,7.94,7.94,7.94s7.94-3.55,7.94-7.94c0-4.38-3.55-7.94-7.94-7.94 S102.67,73.21,102.67,77.6z"></path> <path class="st7" d="M121.09,90.48c0,4.38,3.55,7.94,7.94,7.94c4.38,0,7.94-3.55,7.94-7.94s-3.55-7.94-7.94-7.94 C124.64,82.54,121.09,86.09,121.09,90.48z"></path> <ellipse transform="matrix(0.7071 -0.7071 0.7071 0.7071 -9.8127 81.0684)" class="st8" cx="92.95" cy="52.38" rx="7.94" ry="7.94"></ellipse> <path class="st9" d="M83.77,40.28c0,4.38-3.55,7.94-7.94,7.94c-4.38,0-7.94-3.55-7.94-7.94s3.55-7.94,7.94-7.94 C80.21,32.34,83.77,35.89,83.77,40.28z"></path> <path class="st4" d="M118.24,40.28c0,4.38-3.55,7.94-7.94,7.94c-4.38,0-7.94-3.55-7.94-7.94s3.55-7.94,7.94-7.94 C114.68,32.34,118.24,35.89,118.24,40.28z"></path> <polygon class="st10" points="109.8,41.16 108.97,40.05 93.11,51.83 77.25,40.05 76.42,41.16 92.44,53.05 93.11,52.15 93.78,53.05 "></polygon> <path class="st10" d="M139.9,77.06l0.59-1.25l-13.12-6.25l6.38-11.87l-1.25-0.67l-6.34,11.79l-8.69-12.91l-1.15,0.77l7.94,11.8 l-13.6-3.51l-0.35,1.34l14.02,3.62L111,77.09l-0.16-0.11l-0.21,0.31l-0.36,0.19l-0.46-0.18l-0.21,0.54l-15.73,8.43V34.5h-1.38 v51.77l-15.73-8.43l-0.21-0.54l-0.46,0.18l-0.36-0.19l-0.21-0.31l-0.16,0.11L62,69.94l14.02-3.62l-0.35-1.34l-13.6,3.51l7.94-11.8 l-1.15-0.77l-8.69,12.91l-6.34-11.79L52.6,57.7l6.38,11.87l-13.12,6.25l0.59,1.25l13.69-6.51l13.89,7.44l-13.88,9.45l0.78,1.14 l14.48-9.85l0.27,0.14l6.78,17.21v14.02l-10.94,7.74l-12.06,9l0.83,1.11l11.49-8.57l0.22,0.74l20.49-6.2v6.65H87.3l-10.51,5.12 l0.61,1.24l10.23-4.98h4.86v9.74h1.38v-9.74h4.44l10.23,4.98l0.61-1.24l-10.51-5.12h-4.76v-6.65l20.49,6.2l0.22-0.74l11.49,8.57 l0.83-1.11l-12.06-9l-10.94-7.74V96.08l6.78-17.21l0.27-0.14l15.09,10.46l0.78-1.14l-14.49-10.06l13.89-7.44L139.9,77.06 L139.9,77.06z M73.28,118.28L73.28,118.28l10.55-7.46v-15l-6.28-15.93l14.93,8v24.59L73.28,118.28L73.28,118.28z M102.51,95.81 L102.51,95.81v15l10.55,7.46l-19.2-5.81V87.87l14.93-8L102.51,95.81z"></path> <path class="st11" d="M138.73,77.21c0,2.19,1.78,3.97,3.97,3.97c2.19,0,3.97-1.78,3.97-3.97c0-2.19-1.78-3.97-3.97-3.97 C140.5,73.24,138.73,75.02,138.73,77.21z"></path> <path class="st11" d="M125.22,90.44c0,2.19,1.78,3.97,3.97,3.97c2.19,0,3.97-1.78,3.97-3.97c0-2.19-1.78-3.97-3.97-3.97 C126.99,86.47,125.22,88.24,125.22,90.44z"></path> <path class="st11" d="M107.7,127.91c0,2.19,1.78,3.97,3.97,3.97c2.19,0,3.97-1.78,3.97-3.97c0-2.19-1.78-3.97-3.97-3.97 C109.47,123.94,107.7,125.72,107.7,127.91z"></path> <path class="st12" d="M97.14,31.47c0,2.19-1.78,3.97-3.97,3.97c-2.19,0-3.97-1.78-3.97-3.97c0-2.19,1.78-3.97,3.97-3.97 C95.36,27.5,97.14,29.28,97.14,31.47z"></path> <path class="st12" d="M97.08,130.77c0,2.19-1.78,3.97-3.97,3.97c-2.19,0-3.97-1.78-3.97-3.97c0-2.19,1.78-3.97,3.97-3.97 C95.3,126.81,97.08,128.58,97.08,130.77z"></path> <path class="st12" d="M97.08,113.77c0,2.19-1.78,3.97-3.97,3.97c-2.19,0-3.97-1.78-3.97-3.97c0-2.19,1.78-3.97,3.97-3.97 C95.3,109.8,97.08,111.58,97.08,113.77z"></path> <path class="st12" d="M74.32,54.06c0,2.19-1.78,3.97-3.97,3.97c-2.19,0-3.97-1.78-3.97-3.97c0-2.19,1.78-3.97,3.97-3.97 C72.54,50.09,74.32,51.87,74.32,54.06z"></path> <path class="st12" d="M61.52,90.44c0,2.19-1.78,3.97-3.97,3.97c-2.19,0-3.97-1.78-3.97-3.97c0-2.19,1.78-3.97,3.97-3.97 C59.74,86.47,61.52,88.24,61.52,90.44z"></path> <path class="st12" d="M75.96,118.39c0,2.19-1.78,3.97-3.97,3.97c-2.19,0-3.97-1.78-3.97-3.97c0-2.19,1.78-3.97,3.97-3.97 C74.18,114.42,75.96,116.2,75.96,118.39z"></path> <path class="st12" d="M104.74,64.83c0,2.19,1.78,3.97,3.97,3.97c2.19,0,3.97-1.78,3.97-3.97c0-2.19-1.78-3.97-3.97-3.97 C106.51,60.86,104.74,62.64,104.74,64.83z"></path> <path class="st12" d="M122.21,127.39c0,2.19,1.78,3.97,3.97,3.97c2.19,0,3.97-1.78,3.97-3.97c0-2.19-1.78-3.97-3.97-3.97 C123.98,123.42,122.21,125.19,122.21,127.39z"></path> <path class="st13" d="M97.08,73.08c0,2.19-1.78,3.97-3.97,3.97c-2.19,0-3.97-1.78-3.97-3.97c0-2.19,1.78-3.97,3.97-3.97 C95.3,69.11,97.08,70.89,97.08,73.08z"></path> <path class="st13" d="M50.23,76.15c0,2.19-1.78,3.97-3.97,3.97c-2.19,0-3.97-1.78-3.97-3.97c0-2.19,1.78-3.97,3.97-3.97 C48.45,72.18,50.23,73.95,50.23,76.15z"></path> <circle class="st13" cx="75.96" cy="77.55" r="3.97"></circle> <path class="st13" d="M87.07,95.09c0,2.19-1.78,3.97-3.97,3.97c-2.19,0-3.97-1.78-3.97-3.97c0-2.19,1.78-3.97,3.97-3.97 C85.3,91.13,87.07,92.9,87.07,95.09z"></path> <path class="st13" d="M78.75,127.91c0,2.19-1.78,3.97-3.97,3.97c-2.19,0-3.97-1.78-3.97-3.97c0-2.19,1.78-3.97,3.97-3.97 C76.97,123.94,78.75,125.72,78.75,127.91z"></path> <path class="st13" d="M122.16,69.62c0,2.19,1.78,3.97,3.97,3.97c2.19,0,3.97-1.78,3.97-3.97c0-2.19-1.78-3.97-3.97-3.97 C123.94,65.65,122.16,67.43,122.16,69.62z"></path> <path class="st13" d="M96.72,121.26c0,2.19,1.78,3.97,3.97,3.97c2.19,0,3.97-1.78,3.97-3.97c0-2.19-1.78-3.97-3.97-3.97 C98.5,117.29,96.72,119.07,96.72,121.26z"></path> <path class="st14" d="M79.94,40.3c0,2.19-1.78,3.97-3.97,3.97c-2.19,0-3.97-1.78-3.97-3.97c0-2.19,1.78-3.97,3.97-3.97 C78.16,36.33,79.94,38.11,79.94,40.3z"></path> <path class="st13" d="M106.49,40.3c0,2.19,1.78,3.97,3.97,3.97c2.19,0,3.97-1.78,3.97-3.97c0-2.19-1.78-3.97-3.97-3.97 C108.27,36.33,106.49,38.11,106.49,40.3z"></path> <path class="st14" d="M64.56,69.62c0,2.19-1.78,3.97-3.97,3.97c-2.19,0-3.97-1.78-3.97-3.97c0-2.19,1.78-3.97,3.97-3.97 C62.79,65.65,64.56,67.43,64.56,69.62z"></path> <path class="st14" d="M86.42,110.09c0,2.19-1.78,3.97-3.97,3.97c-2.19,0-3.97-1.78-3.97-3.97c0-2.19,1.78-3.97,3.97-3.97 C84.64,106.13,86.42,107.9,86.42,110.09z"></path> <path class="st14" d="M130.77,53.96c0,2.19,1.78,3.97,3.97,3.97c2.19,0,3.97-1.78,3.97-3.97c0-2.19-1.78-3.97-3.97-3.97 C132.55,49.99,130.77,51.76,130.77,53.96z"></path> <path class="st14" d="M106.64,77.6c0,2.19,1.78,3.97,3.97,3.97c2.19,0,3.97-1.78,3.97-3.97c0-2.19-1.78-3.97-3.97-3.97 C108.42,73.63,106.64,75.41,106.64,77.6z"></path> <path class="st14" d="M110.77,118.39c0,2.19,1.78,3.97,3.97,3.97c2.19,0,3.97-1.78,3.97-3.97c0-2.19-1.78-3.97-3.97-3.97 C112.54,114.42,110.77,116.2,110.77,118.39z"></path> <path class="st15" d="M97.08,100.2c0,2.19-1.78,3.97-3.97,3.97c-2.19,0-3.97-1.78-3.97-3.97c0-2.19,1.78-3.97,3.97-3.97 C95.3,96.24,97.08,98.01,97.08,100.2z"></path> <path class="st15" d="M81.7,64.79c0,2.19-1.78,3.97-3.97,3.97c-2.19,0-3.97-1.78-3.97-3.97c0-2.19,1.78-3.97,3.97-3.97 C79.93,60.82,81.7,62.6,81.7,64.79z"></path> <path class="st15" d="M63.9,127.39c0,2.19-1.78,3.97-3.97,3.97c-2.19,0-3.97-1.78-3.97-3.97c0-2.19,1.78-3.97,3.97-3.97 C62.12,123.42,63.9,125.19,63.9,127.39z"></path> <path class="st15" d="M89.69,121.34c0,2.19-1.78,3.97-3.97,3.97c-2.19,0-3.97-1.78-3.97-3.97c0-2.19,1.78-3.97,3.97-3.97 C87.91,117.37,89.69,119.14,89.69,121.34z"></path> <path class="st15" d="M99.55,110.45c0,2.19,1.78,3.97,3.97,3.97c2.19,0,3.97-1.78,3.97-3.97c0-2.19-1.78-3.97-3.97-3.97 C101.32,106.48,99.55,108.26,99.55,110.45z"></path> <path class="st11" d="M97.08,52.34c0,2.19-1.78,3.97-3.97,3.97c-2.19,0-3.97-1.78-3.97-3.97c0-2.19,1.78-3.97,3.97-3.97 C95.3,48.37,97.08,50.14,97.08,52.34z"></path> <circle class="st11" cx="93.11" cy="86.64" r="3.97"></circle> <path class="st11" d="M55.42,54.06c0,2.19-1.78,3.97-3.97,3.97c-2.19,0-3.97-1.78-3.97-3.97c0-2.19,1.78-3.97,3.97-3.97 C53.65,50.09,55.42,51.87,55.42,54.06z"></path> <path class="st11" d="M112.14,54.36c0,2.19,1.78,3.97,3.97,3.97c2.19,0,3.97-1.78,3.97-3.97c0-2.19-1.78-3.97-3.97-3.97 C113.92,50.4,112.14,52.17,112.14,54.36z"></path> <path class="st11" d="M99.55,95.09c0,2.19,1.78,3.97,3.97,3.97c2.19,0,3.97-1.78,3.97-3.97c0-2.19-1.78-3.97-3.97-3.97 C101.32,91.13,99.55,92.9,99.55,95.09z"></path> <path class="st16" d="M148.71,133.99c12.66-13.64,20.41-31.9,20.41-51.98c0-42.2-34.21-76.42-76.42-76.42 c-42.2,0-76.42,34.21-76.42,76.42c0,20.01,7.7,38.23,20.29,51.85c0.31,0.23,0.68,0.38,1.09,0.46c1.44,0.25,2.81-0.7,3.06-2.13 c0.1-0.57,0.01-1.12-0.23-1.6c-12.34-13.24-19.1-30.38-19.1-48.57c0-19.05,7.42-36.95,20.88-50.42 C55.74,18.12,73.65,10.7,92.7,10.7c19.05,0,36.95,7.42,50.42,20.89C156.59,45.06,164,62.96,164,82.01 c0,18.09-6.69,35.15-18.91,48.36c-0.32,0.52-0.46,1.16-0.34,1.81c0.25,1.43,1.62,2.39,3.06,2.13 C148.14,134.26,148.44,134.15,148.71,133.99z"></path> </g> </svg> 